<svg xmlns="http://www.w3.org/2000/svg" xmlns:xlink="http://www.w3.org/1999/xlink" version="1.1" viewBox="617.5 0 765 765"><svg xml:space="preserve" width="2000" height="765" data-version="2" data-id="lg_9sMQbrSp2w4SEpIueA" viewBox="0 0 765 765" x="0" y="0"><rect width="100%" height="100%" fill="transparent"/><circle r="374.66" fill="#fb7f25" transform="translate(382.5 382.5)"/><path fill="#570033" d="M399.84 628.58H239.19q50.68-183.05 72.05-446.77 0-4.48 11.21-13.44 11.2-8.97 18.78-8.97h153.75q-44.47 187.19-64.81 446.43 0 4.48-11.03 13.61-11.03 9.14-19.3 9.14M561.17 375.2q0-47.22-15-104.79-14.99-57.57-32.23-83.43 2.07-15.85 10.34-27.58h107.21q-11.03 103.77-29.3 193.05-1.38 5.17-16.72 13.96-15.34 8.79-24.3 8.79m-419.88-.34q2.76-40.33 13.1-106t15.51-84.98q2.42-6.89 11.9-15.68 9.48-8.8 15.68-8.8h104.8q-35.16 42.06-53.95 77.57-18.79 35.51-36.2 68.77-17.41 33.27-26.71 50.5-2.07 3.8-19.14 11.21-17.06 7.41-24.99 7.41"/><rect width="490.2" height="469.18" x="-245.1" y="-234.59" fill="none" rx="0" ry="0" transform="translate(386.89 394.49)"/></svg></svg>